<svg width="651.337548828125px" height="154.42750244140623px" xmlns="http://www.w3.org/2000/svg" viewBox="-75.66877441406251 -2.2137512207031165 651.337548828125 154.42750244140623" style="background: rgba(0, 0, 0, 0);" preserveAspectRatio="xMidYMid"><defs><filter id="editing-extrusion" x="-100%" y="-100%" width="300%" height="300%"><feFlood result="color1" flood-color="#388965"></feFlood><feConvolveMatrix order="2,2" divisor="1" kernelMatrix="1 0 0 1" in="SourceAlpha" result="extrude"></feConvolveMatrix><feComposite in="color1" in2="extrude" result="comp-extrude" operator="in"></feComposite><feOffset dx="1" dy="1" in="comp-extrude" result="offset-extrude"></feOffset><feMerge><feMergeNode in="offset-extrude"></feMergeNode><feMergeNode in="SourceGraphic"></feMergeNode></feMerge></filter></defs><g filter="url(#editing-extrusion)"><g transform="translate(17.649994373321533, 104.76500129699707)"><path d="M37.58-56.70L37.58-56.70L38.48-56.70L38.48-56.70Q39.20-56.70 39.69-56.21L39.69-56.21L39.69-56.21Q40.42-55.40 39.85-54.35L39.85-54.35L25.68-28.92L40.91-2.35L40.91-2.35Q41.15-1.86 41.15-1.46L41.15-1.46L41.15-1.46Q41.15 0 39.53 0L39.53 0L38.64 0L38.64 0Q37.75 0 37.42-0.49L37.42-0.49L23.49-24.87L11.18-2.19L11.18-2.19Q9.72 0.24 7.94 0.24L7.94 0.24L7.94 0.24Q4.86 0.24 4.86-3.00L4.86-3.00L4.86-55.08L4.86-55.08Q4.86-55.73 5.31-56.21L5.31-56.21L5.31-56.21Q5.75-56.70 6.48-56.70L6.48-56.70L7.29-56.70L7.29-56.70Q8.02-56.70 8.46-56.21L8.46-56.21L8.46-56.21Q8.91-55.73 8.91-55.08L8.91-55.08L8.91-6.48L24.95-35.80L36.45-56.21L36.45-56.21Q36.77-56.70 37.58-56.70ZM50.14-40.66L50.14-40.66L50.79-40.66L50.79-40.66Q52.41-40.66 52.41-39.04L52.41-39.04L52.41-13.45L52.41-13.45Q52.41-8.67 54.80-6.24L54.80-6.24L54.80-6.24Q57.19-3.81 61.56-3.81L61.56-3.81L61.56-3.81Q65.93-3.81 69.09-7.29L69.09-7.29L69.09-7.29Q69.82-8.18 70.63-8.18L70.63-8.18L70.63-8.18Q72.17-8.18 72.17-6.40L72.17-6.40L72.17-6.40Q72.17-5.67 71.77-5.10L71.77-5.10L71.77-5.10Q70.15-2.83 67.23-1.42L67.23-1.42L67.23-1.42Q64.31 0 61.07 0L61.07 0L61.07 0Q55.49 0 52.04-3.52L52.04-3.52L52.04-3.52Q48.60-7.05 48.60-13.37L48.60-13.37L48.60-39.04L48.60-39.04Q48.60-40.66 50.14-40.66ZM74.12-40.50L74.12-40.50L74.93-40.50L74.93-40.50Q76.46-40.50 76.46-38.88L76.46-38.88L76.46-9.48L76.46-9.48Q76.46-6.32 76.99-5.14L76.99-5.14L76.99-5.14Q77.52-3.97 79.06-3.56L79.06-3.56L79.95-3.32L79.95-3.32Q81.16-3.08 81.16-2.27L81.16-2.27L81.16-1.38L81.16-1.38Q81.16 0 79.54 0L79.54 0L79.54 0Q75.57 0 74.07-2.35L74.07-2.35L74.07-2.35Q72.58-4.70 72.58-9.56L72.58-9.56L72.58-38.88L72.58-38.88Q72.58-40.50 74.12-40.50ZM88.78-59.13L88.78-59.13L89.42-59.13L89.42-59.13Q90.07-59.13 90.56-58.68L90.56-58.68L90.56-58.68Q91.04-58.24 91.04-57.59L91.04-57.59L91.04-36.61L91.04-36.61Q95.26-40.66 101.57-40.66L101.57-40.66L101.57-40.66Q107.89-40.66 111.50-37.14L111.50-37.14L111.50-37.14Q115.10-33.62 115.10-27.30L115.10-27.30L115.10-13.20L115.10-13.20Q115.10-6.80 111.21-3.32L111.21-3.32L111.21-3.32Q107.33 0.16 101.09 0.16L101.09 0.16L101.09 0.16Q94.85 0.16 91.00-3.36L91.00-3.36L91.00-3.36Q87.16-6.88 87.16-13.20L87.16-13.20L87.16-57.59L87.16-57.59Q87.16-58.24 87.64-58.68L87.64-58.68L87.64-58.68Q88.13-59.13 88.78-59.13ZM101.74-36.77L101.74-36.77L101.74-36.77Q94.77-36.77 91.04-31.83L91.04-31.83L91.04-13.28L91.04-13.28Q91.04-8.67 93.88-6.20L93.88-6.20L93.88-6.20Q96.71-3.73 101.09-3.73L101.09-3.73L101.09-3.73Q105.46-3.73 108.34-6.16L108.34-6.16L108.34-6.16Q111.21-8.59 111.21-13.28L111.21-13.28L111.21-27.14L111.21-27.14Q111.21-31.83 108.62-34.30L108.62-34.30L108.62-34.30Q106.03-36.77 101.74-36.77ZM126.20-27.30L126.20-27.30Q126.20-33.70 130.09-37.18L130.09-37.18L130.09-37.18Q133.97-40.66 140.21-40.66L140.21-40.66L140.21-40.66Q146.45-40.66 150.26-37.14L150.26-37.14L150.26-37.14Q154.06-33.62 154.06-27.30L154.06-27.30L154.06-22.44L154.06-22.44Q154.06-18.95 150.74-18.95L150.74-18.95L133.25-18.95L133.25-18.95Q132.52-18.95 132.07-19.44L132.07-19.44L132.07-19.44Q131.63-19.93 131.63-20.57L131.63-20.57L131.63-21.22L131.63-21.22Q131.63-21.87 132.07-22.36L132.07-22.36L132.07-22.36Q132.52-22.84 133.25-22.84L133.25-22.84L150.26-22.84L150.26-27.22L150.26-27.22Q150.26-31.83 147.42-34.30L147.42-34.30L147.42-34.30Q144.59-36.77 140.21-36.77L140.21-36.77L140.21-36.77Q135.84-36.77 132.96-34.30L132.96-34.30L132.96-34.30Q130.09-31.83 130.09-27.22L130.09-27.22L130.09-13.28L130.09-13.28Q130.09-8.67 132.96-6.20L132.96-6.20L132.96-6.20Q135.84-3.73 140.17-3.73L140.17-3.73L140.17-3.73Q144.50-3.73 147.38-6.12L147.38-6.12L147.38-6.12Q150.26-8.51 150.26-12.96L150.26-12.96L150.26-12.96Q150.26-13.61 150.70-14.09L150.70-14.09L150.70-14.09Q151.15-14.58 151.79-14.58L151.79-14.58L152.44-14.58L152.44-14.58Q153.17-14.58 153.62-14.09L153.62-14.09L153.62-14.09Q154.06-13.61 154.06-12.96L154.06-12.96L154.06-12.96Q153.98-6.72 150.17-3.28L150.17-3.28L150.17-3.28Q146.37 0.16 140.21 0.16L140.21 0.16L140.21 0.16Q134.06 0.16 130.13-3.36L130.13-3.36L130.13-3.36Q126.20-6.88 126.20-13.20L126.20-13.20L126.20-27.30ZM168.16-56.70L168.16-56.70L180.71-56.70L180.71-56.70Q186.38-56.70 191.16-53.62L191.16-53.62L191.16-53.62Q193.67-52.00 195.21-48.92L195.21-48.92L195.21-48.92Q196.75-45.85 196.75-41.63L196.75-41.63L196.75-41.63Q196.75-35.23 193.02-30.90L193.02-30.90L193.02-30.90Q189.30-26.57 180.06-26.57L180.06-26.57L174.72-26.57L174.72-26.57Q173.99-26.57 173.54-27.05L173.54-27.05L173.54-27.05Q173.10-27.54 173.10-28.19L173.10-28.19L173.10-28.92L173.10-28.92Q173.10-30.54 174.72-30.54L174.72-30.54L179.09-30.54L179.09-30.54Q187.92-30.54 190.51-34.26L190.51-34.26L190.51-34.26Q192.70-37.34 192.70-41.72L192.70-41.72L192.70-41.72Q192.70-47.47 189.01-50.06L189.01-50.06L189.01-50.06Q185.33-52.65 180.31-52.65L180.31-52.65L168.64-52.65L168.64-1.62L168.64-1.62Q168.64-0.97 168.16-0.49L168.16-0.49L168.16-0.49Q167.67 0 167.02 0L167.02 0L166.21 0L166.21 0Q165.56 0 165.08-0.49L165.08-0.49L165.08-0.49Q164.59-0.97 164.59-1.62L164.59-1.62L164.59-53.14L164.59-53.14Q164.59-55.24 165.32-55.97L165.32-55.97L165.32-55.97Q166.05-56.70 168.16-56.70ZM220.00-40.66L220.00-40.66L220.00-40.66Q221.54-40.66 221.54-39.04L221.54-39.04L221.54-38.48L221.54-38.48Q221.54-37.83 221.09-37.34L221.09-37.34L221.09-37.34Q220.64-36.86 220.00-36.86L220.00-36.86L220.00-36.86Q215.38-36.86 212.63-34.51L212.63-34.51L212.63-34.51Q209.87-32.16 209.87-27.30L209.87-27.30L209.87-1.62L209.87-1.62Q209.87-0.89 209.39-0.45L209.39-0.45L209.39-0.45Q208.90 0 208.25 0L208.25 0L207.68 0L207.68 0Q207.04 0 206.55-0.45L206.55-0.45L206.55-0.45Q206.06-0.89 206.06-1.62L206.06-1.62L206.06-27.30L206.06-27.30Q206.06-33.94 209.79-37.30L209.79-37.30L209.79-37.30Q213.52-40.66 220.00-40.66ZM229.80-27.30L229.80-27.30Q229.80-33.70 233.69-37.18L233.69-37.18L233.69-37.18Q237.57-40.66 243.81-40.66L243.81-40.66L243.81-40.66Q250.05-40.66 253.85-37.14L253.85-37.14L253.85-37.14Q257.66-33.62 257.66-27.30L257.66-27.30L257.66-22.44L257.66-22.44Q257.66-18.95 254.34-18.95L254.34-18.95L236.84-18.95L236.84-18.95Q236.12-18.95 235.67-19.44L235.67-19.44L235.67-19.44Q235.22-19.93 235.22-20.57L235.22-20.57L235.22-21.22L235.22-21.22Q235.22-21.87 235.67-22.36L235.67-22.36L235.67-22.36Q236.12-22.84 236.84-22.84L236.84-22.84L253.85-22.84L253.85-27.22L253.85-27.22Q253.85-31.83 251.02-34.30L251.02-34.30L251.02-34.30Q248.18-36.77 243.81-36.77L243.81-36.77L243.81-36.77Q239.44-36.77 236.56-34.30L236.56-34.30L236.56-34.30Q233.69-31.83 233.69-27.22L233.69-27.22L233.69-13.28L233.69-13.28Q233.69-8.67 236.56-6.20L236.56-6.20L236.56-6.20Q239.44-3.73 243.77-3.73L243.77-3.73L243.77-3.73Q248.10-3.73 250.98-6.12L250.98-6.12L250.98-6.12Q253.85-8.51 253.85-12.96L253.85-12.96L253.85-12.96Q253.85-13.61 254.30-14.09L254.30-14.09L254.30-14.09Q254.75-14.58 255.39-14.58L255.39-14.58L256.04-14.58L256.04-14.58Q256.77-14.58 257.22-14.09L257.22-14.09L257.22-14.09Q257.66-13.61 257.66-12.96L257.66-12.96L257.66-12.96Q257.58-6.72 253.77-3.28L253.77-3.28L253.77-3.28Q249.97 0.16 243.81 0.16L243.81 0.16L243.81 0.16Q237.65 0.16 233.73-3.36L233.73-3.36L233.73-3.36Q229.80-6.88 229.80-13.20L229.80-13.20L229.80-27.30ZM269.89-29.93L269.89-29.93L269.89-29.93Q269.89-34.51 273.01-37.58L273.01-37.58L273.01-37.58Q276.13-40.66 282.33-40.66L282.33-40.66L282.33-40.66Q288.52-40.66 291.84-37.62L291.84-37.62L291.84-37.62Q295.16-34.59 295.16-28.67L295.16-28.67L295.16-28.67Q295.16-28.03 294.72-27.58L294.72-27.58L294.72-27.58Q294.27-27.14 293.63-27.14L293.63-27.14L292.90-27.14L292.90-27.14Q292.25-27.14 291.80-27.58L291.80-27.58L291.80-27.58Q291.36-28.03 291.36-28.59L291.36-28.59L291.36-28.59Q291.36-36.77 282.20-36.77L282.20-36.77L282.20-36.77Q277.99-36.77 275.85-34.75L275.85-34.75L275.85-34.75Q273.70-32.72 273.70-29.65L273.70-29.65L273.70-29.65Q273.70-26.57 275.76-24.75L275.76-24.75L275.76-24.75Q277.83-22.92 283.58-21.79L283.58-21.79L283.58-21.79Q289.33-20.66 292.57-18.23L292.57-18.23L292.57-18.23Q295.81-15.79 295.81-10.98L295.81-10.98L295.81-10.98Q295.81-6.16 292.29-2.96L292.29-2.96L292.29-2.96Q288.76 0.24 282.49 0.24L282.49 0.24L282.49 0.24Q276.21 0.24 272.32-2.96L272.32-2.96L272.32-2.96Q268.43-6.16 268.43-12.39L268.43-12.39L268.43-12.39Q268.43-14.09 270.05-14.09L270.05-14.09L270.70-14.09L270.70-14.09Q272.24-14.09 272.24-12.47L272.24-12.47L272.24-12.47Q272.24-3.65 282.69-3.65L282.69-3.65L282.69-3.65Q287.39-3.65 289.70-5.79L289.70-5.79L289.70-5.79Q292.00-7.94 292.00-11.10L292.00-11.10L292.00-11.10Q292.00-14.26 289.57-15.67L289.57-15.67L289.57-15.67Q287.14-17.09 281.11-18.39L281.11-18.39L281.11-18.39Q275.08-19.68 272.48-22.52L272.48-22.52L272.48-22.52Q269.89-25.35 269.89-29.93ZM308.04-40.58L308.04-40.58L309.42-40.58L309.42-40.58Q310.39-40.58 310.72-40.18L310.72-40.18L310.72-40.18Q311.04-39.77 311.04-38.96L311.04-38.96L311.04-1.62L311.04-1.62Q311.04-0.89 310.55-0.45L310.55-0.45L310.55-0.45Q310.07 0 309.42 0L309.42 0L308.04 0L308.04 0Q307.40 0 306.91-0.45L306.91-0.45L306.91-0.45Q306.42-0.89 306.42-1.62L306.42-1.62L306.42-38.96L306.42-38.96Q306.42-40.01 306.87-40.30L306.87-40.30L306.87-40.30Q307.31-40.58 308.04-40.58ZM304.88-58.60L304.88-58.60L304.88-58.60Q305.69-59.29 308.61-59.29L308.61-59.29L308.61-59.29Q311.53-59.29 312.42-58.52L312.42-58.52L312.42-58.52Q313.31-57.75 313.31-55.32L313.31-55.32L313.31-54.27L313.31-54.27Q313.31-51.52 312.42-50.79L312.42-50.79L312.42-50.79Q311.53-50.06 308.61-50.06L308.61-50.06L308.61-50.06Q305.69-50.06 304.88-50.79L304.88-50.79L304.88-50.79Q304.07-51.52 304.07-54.27L304.07-54.27L304.07-55.32L304.07-55.32Q304.07-57.91 304.88-58.60ZM310.47-55.08L310.47-55.08Q310.47-55.89 310.11-56.17L310.11-56.17L310.11-56.17Q309.74-56.46 308.65-56.46L308.65-56.46L308.65-56.46Q307.56-56.46 307.23-56.21L307.23-56.21L307.23-56.21Q306.91-55.97 306.91-55.08L306.91-55.08L306.91-54.27L306.91-54.27Q306.91-53.38 307.23-53.14L307.23-53.14L307.23-53.14Q307.56-52.89 308.69-52.89L308.69-52.89L308.69-52.89Q309.83-52.89 310.15-53.14L310.15-53.14L310.15-53.14Q310.47-53.38 310.47-54.27L310.47-54.27L310.47-55.08ZM348.62-59.29L348.62-59.29L349.60-59.29L349.60-59.29Q351.05-59.29 351.05-57.75L351.05-57.75L351.05-13.20L351.05-13.20Q351.05-6.88 347.21-3.36L347.21-3.36L347.21-3.36Q343.36 0.16 337.12 0.16L337.12 0.16L337.12 0.16Q330.89 0.16 327.00-3.32L327.00-3.32L327.00-3.32Q323.11-6.80 323.11-13.20L323.11-13.20L323.11-27.30L323.11-27.30Q323.11-33.53 327.00-37.02L327.00-37.02L327.00-37.02Q330.89-40.50 337.12-40.50L337.12-40.50L337.12-40.50Q339.71-40.50 342.67-39.53L342.67-39.53L342.67-39.53Q345.63-38.56 347.17-37.34L347.17-37.34L347.17-57.75L347.17-57.75Q347.17-59.29 348.62-59.29ZM347.17-13.28L347.17-32.89L347.17-32.89Q342.47-36.61 337.61-36.61L337.61-36.61L337.61-36.61Q332.75-36.61 329.87-34.18L329.87-34.18L329.87-34.18Q327.00-31.75 327.00-27.14L327.00-27.14L327.00-13.28L327.00-13.28Q327.00-8.59 329.87-6.16L329.87-6.16L329.87-6.16Q332.75-3.73 337.12-3.73L337.12-3.73L337.12-3.73Q341.50-3.73 344.33-6.20L344.33-6.20L344.33-6.20Q347.17-8.67 347.17-13.28L347.17-13.28ZM364.18-27.30L364.18-27.30Q364.18-33.70 368.06-37.18L368.06-37.18L368.06-37.18Q371.95-40.66 378.19-40.66L378.19-40.66L378.19-40.66Q384.43-40.66 388.23-37.14L388.23-37.14L388.23-37.14Q392.04-33.62 392.04-27.30L392.04-27.30L392.04-22.44L392.04-22.44Q392.04-18.95 388.72-18.95L388.72-18.95L371.22-18.95L371.22-18.95Q370.49-18.95 370.05-19.44L370.05-19.44L370.05-19.44Q369.60-19.93 369.60-20.57L369.60-20.57L369.60-21.22L369.60-21.22Q369.60-21.87 370.05-22.36L370.05-22.36L370.05-22.36Q370.49-22.84 371.22-22.84L371.22-22.84L388.23-22.84L388.23-27.22L388.23-27.22Q388.23-31.83 385.40-34.30L385.40-34.30L385.40-34.30Q382.56-36.77 378.19-36.77L378.19-36.77L378.19-36.77Q373.82-36.77 370.94-34.30L370.94-34.30L370.94-34.30Q368.06-31.83 368.06-27.22L368.06-27.22L368.06-13.28L368.06-13.28Q368.06-8.67 370.94-6.20L370.94-6.20L370.94-6.20Q373.82-3.73 378.15-3.73L378.15-3.73L378.15-3.73Q382.48-3.73 385.36-6.12L385.36-6.12L385.36-6.12Q388.23-8.51 388.23-12.96L388.23-12.96L388.23-12.96Q388.23-13.61 388.68-14.09L388.68-14.09L388.68-14.09Q389.12-14.58 389.77-14.58L389.77-14.58L390.42-14.58L390.42-14.58Q391.15-14.58 391.59-14.09L391.59-14.09L391.59-14.09Q392.04-13.61 392.04-12.96L392.04-12.96L392.04-12.96Q391.96-6.72 388.15-3.28L388.15-3.28L388.15-3.28Q384.35 0.16 378.19 0.16L378.19 0.16L378.19 0.16Q372.03 0.16 368.10-3.36L368.10-3.36L368.10-3.36Q364.18-6.88 364.18-13.20L364.18-13.20L364.18-27.30ZM418.28-40.66L418.28-40.66L418.28-40.66Q424.36-40.66 427.60-37.46L427.60-37.46L427.60-37.46Q430.84-34.26 430.84-28.11L430.84-28.11L430.84-1.62L430.84-1.62Q430.84 0 429.30 0L429.30 0L428.65 0L428.65 0Q427.03 0 427.03-1.62L427.03-1.62L427.03-27.22L427.03-27.22Q427.03-36.86 418.20-36.86L418.20-36.86L418.20-36.86Q413.59-36.86 410.35-33.21L410.35-33.21L410.35-33.21Q409.46-32.48 408.81-32.48L408.81-32.48L408.81-32.48Q407.35-32.48 407.27-34.10L407.27-34.10L407.27-34.10Q407.27-34.75 407.59-35.40L407.59-35.40L407.59-35.40Q409.29-37.75 412.13-39.20L412.13-39.20L412.13-39.20Q414.96-40.66 418.28-40.66ZM404.60-40.42L404.60-40.42L405.24-40.42L405.24-40.42Q405.89-40.42 406.38-39.97L406.38-39.97L406.38-39.97Q406.86-39.53 406.86-38.80L406.86-38.80L406.86-1.62L406.86-1.62Q406.86-0.89 406.38-0.45L406.38-0.45L406.38-0.45Q405.89 0 405.24 0L405.24 0L404.60 0L404.60 0Q403.95 0 403.46-0.45L403.46-0.45L403.46-0.45Q402.98-0.89 402.98-1.62L402.98-1.62L402.98-38.80L402.98-38.80Q402.98-39.53 403.46-39.97L403.46-39.97L403.46-39.97Q403.95-40.42 404.60-40.42ZM446.15-59.13L446.15-59.13L446.80-59.13L446.80-59.13Q448.33-59.13 448.33-57.59L448.33-57.59L448.09-12.47L448.09-12.47Q448.17-8.34 450.40-6.08L450.40-6.08L450.40-6.08Q452.63-3.81 456.27-3.81L456.27-3.81L458.30-3.81L458.30-3.81Q458.95-3.81 459.39-3.32L459.39-3.32L459.39-3.32Q459.84-2.83 459.84-2.27L459.84-2.27L459.84-1.62L459.84-1.62Q459.84 0 456.19 0L456.19 0L456.19 0Q450.85 0 447.61-3.28L447.61-3.28L447.61-3.28Q444.37-6.56 444.29-12.39L444.29-12.39L444.53-57.59L444.53-57.59Q444.69-59.13 446.15-59.13ZM439.91-40.50L439.91-40.50L441.86-40.50L441.86-40.50Q442.58-40.50 443.03-40.01L443.03-40.01L443.03-40.01Q443.48-39.53 443.48-38.88L443.48-38.88L443.48-38.39L443.48-38.39Q443.48-37.75 443.03-37.26L443.03-37.26L443.03-37.26Q442.58-36.77 441.86-36.77L441.86-36.77L439.91-36.77L439.91-36.77Q439.18-36.77 438.74-37.26L438.74-37.26L438.74-37.26Q438.29-37.75 438.29-38.39L438.29-38.39L438.29-38.88L438.29-38.88Q438.29-39.53 438.74-40.01L438.74-40.01L438.74-40.01Q439.18-40.50 439.91-40.50ZM450.76-40.50L450.76-40.50L456.76-40.50L456.76-40.50Q457.41-40.50 457.85-40.01L457.85-40.01L457.85-40.01Q458.30-39.53 458.30-38.88L458.30-38.88L458.30-38.39L458.30-38.39Q458.30-37.75 457.85-37.26L457.85-37.26L457.85-37.26Q457.41-36.77 456.76-36.77L456.76-36.77L450.76-36.77L450.76-36.77Q450.12-36.77 449.63-37.26L449.63-37.26L449.63-37.26Q449.14-37.75 449.14-38.39L449.14-38.39L449.14-38.88L449.14-38.88Q449.14-39.53 449.63-40.01L449.63-40.01L449.63-40.01Q450.12-40.50 450.76-40.50Z" fill="#3d3d3d"></path></g></g><style>text {
  font-size: 64px;
  font-family: Arial Black;
  dominant-baseline: central;
  text-anchor: middle;
}</style></svg>